<?xml version="1.0" encoding="iso-8859-1"?>
<!-- Generator: Adobe Illustrator 19.0.0, SVG Export Plug-In . SVG Version: 6.00 Build 0)  -->
<svg xmlns="http://www.w3.org/2000/svg" xmlns:xlink="http://www.w3.org/1999/xlink" version="1.1" id="fish" x="0px" y="0px" viewBox="0 0 512 512" style="enable-background:new 0 0 512 512;" xml:space="preserve" width="50px" height="50px">
<g>
	<g>
		<path d="M363.234,164.414l-18.38-14.014c-2.947-20.401-8.391-40.972-16.175-60.77c-13.148-33.441-32.423-62.815-55.74-84.946    c-2.174-2.063-5.369-2.634-8.124-1.451c-2.754,1.183-4.54,3.893-4.54,6.891v11.519c-4.842-4.194-10.535-10.158-15.399-18.071    c-1.174-1.909-3.14-3.193-5.359-3.5c-2.223-0.31-4.461,0.393-6.109,1.91c-24.217,22.288-44.235,52.024-57.89,85.995    c-12.338,30.694-19.034,63.283-19.424,94.357l-15.153,37.644c-4.374,10.865-5.664,22.767-3.732,34.42    c12.455,75.145,38.044,129.319,39.127,131.589c1.246,2.609,3.879,4.269,6.768,4.269h0.037c2.903-0.014,5.538-1.703,6.763-4.335    l10.251-22.024c5.52,11.959,10.584,21.825,14.502,29.076c3.076,5.693,3.729,12.551,1.792,18.814l-27.984,90.498    c-0.91,2.942,0.071,6.141,2.474,8.067c2.402,1.926,5.738,2.187,8.413,0.66l44.182-25.247c5.063-2.894,11.356-2.894,16.42,0    l44.182,25.247c1.159,0.663,2.442,0.988,3.72,0.988c1.67,0,3.331-0.557,4.692-1.648c2.402-1.926,3.384-5.125,2.474-8.067    l-27.984-90.498c-1.937-6.264-1.284-13.122,1.792-18.814c11.252-20.823,31.906-62.981,45.445-113.885l8.681,11.493    c1.428,1.89,3.65,2.979,5.984,2.979c0.304,0,0.61-0.019,0.916-0.056c2.657-0.326,4.938-2.044,5.986-4.507    c14.769-34.708,18.735-76.339,19.785-98.066C376.123,180.622,371.491,170.709,363.234,164.414z M275.632,385.842    c-4.979,9.215-6.045,20.286-2.925,30.376l22.37,72.341l-22.05-12.599l-9.451-41.81c-0.914-4.04-4.928-6.577-8.969-5.662    c-4.04,0.913-6.575,4.929-5.662,8.969l7.109,31.447c-6.801-0.93-13.85,0.344-19.963,3.838l-27.681,15.817l22.37-72.342    c3.119-10.088,2.053-21.16-2.926-30.375c-6.575-12.168-16.467-31.882-26.255-56.699c-1.52-3.854-5.876-5.744-9.729-4.225    c-3.853,1.52-5.745,5.876-4.225,9.729c1.492,3.782,2.985,7.433,4.47,10.977l-8.717,18.728    c-8.437-21.067-23.085-62.293-31.391-112.408c-1.481-8.938-0.497-18.055,2.849-26.366l2.955-7.341    c2.779,26.682,8.864,54.774,18.209,83.912c1.265,3.944,5.489,6.118,9.432,4.851c3.944-1.265,6.116-5.488,4.851-9.432    c-12.979-40.469-19.451-78.713-19.238-113.668c0.151-24.82,4.58-50.163,12.51-74.231c18.784,16.362,43.057,25.572,68.167,25.572    c17.778,0,35.32-4.577,50.73-13.237c3.611-2.029,4.893-6.602,2.864-10.213c-2.029-3.611-6.603-4.894-10.213-2.864    c-13.171,7.402-28.172,11.314-43.382,11.314c-23.44,0-46.029-9.384-62.592-25.864c11.512-28.709,28.037-54.924,48.177-75.333    c12.395,16.233,26.398,23.424,27.07,23.763c2.325,1.173,5.092,1.054,7.309-0.31c2.217-1.365,3.568-3.783,3.568-6.387v-7.241    c34.789,40.33,56.805,99.164,57.146,155.031C332.948,270.331,292.882,353.917,275.632,385.842z M360.643,190.208    c-0.877,18.151-3.861,50.804-13.896,80.507l-7.902-10.463c5.335-24.357,8.736-50.247,8.576-76.443    c-0.026-4.282-0.185-8.597-0.451-12.934l7.169,5.466C358.472,179.645,360.903,184.829,360.643,190.208z" fill="#91DC5A"/>
	</g>
</g>
<g>
	<g>
		<path d="M235.711,56.113c-12.976,0-23.532,10.557-23.532,23.532c0,12.975,10.557,23.532,23.532,23.532    c12.975,0,23.532-10.557,23.532-23.532C259.243,66.67,248.686,56.113,235.711,56.113z M235.711,88.178    c-4.705,0-8.532-3.828-8.532-8.532s3.828-8.532,8.532-8.532c4.704,0,8.532,3.828,8.532,8.532S240.415,88.178,235.711,88.178z" fill="#91DC5A"/>
	</g>
</g>
<g>
	<g>
		<path d="M302.171,156.066H201.813c-4.142,0-7.5,3.358-7.5,7.5c0,4.142,3.358,7.5,7.5,7.5h100.358c4.142,0,7.5-3.358,7.5-7.5    C309.671,159.424,306.313,156.066,302.171,156.066z" fill="#91DC5A"/>
	</g>
</g>
<g>
	<g>
		<path d="M256.004,204.163h-54.845c-4.142,0-7.5,3.358-7.5,7.5c0,4.142,3.358,7.5,7.5,7.5h54.845c4.142,0,7.5-3.358,7.5-7.5    C263.504,207.521,260.146,204.163,256.004,204.163z" fill="#91DC5A"/>
	</g>
</g>
<g>
	<g>
		<path d="M302.826,204.163h-14.763c-4.142,0-7.5,3.358-7.5,7.5c0,4.142,3.358,7.5,7.5,7.5h14.763c4.142,0,7.5-3.358,7.5-7.5    C310.326,207.521,306.968,204.163,302.826,204.163z" fill="#91DC5A"/>
	</g>
</g>
<g>
	<g>
		<path d="M296.081,252.259h-88.177c-4.142,0-7.5,3.358-7.5,7.5c0,4.142,3.358,7.5,7.5,7.5h88.177c4.142,0,7.5-3.358,7.5-7.5    C303.581,255.617,300.223,252.259,296.081,252.259z" fill="#91DC5A"/>
	</g>
</g>
<g>
	<g>
		<path d="M231.948,300.356h-9.418c-4.142,0-7.5,3.358-7.5,7.5c0,4.142,3.358,7.5,7.5,7.5h9.418c4.142,0,7.5-3.357,7.5-7.5    C239.448,303.714,236.09,300.356,231.948,300.356z" fill="#91DC5A"/>
	</g>
</g>
<g>
	<g>
		<path d="M281.455,300.356h-17.438c-4.142,0-7.5,3.358-7.5,7.5c0,4.142,3.358,7.5,7.5,7.5h17.438c4.142,0,7.5-3.358,7.5-7.5    C288.955,303.714,285.597,300.356,281.455,300.356z" fill="#91DC5A"/>
	</g>
</g>
<g>
	<g>
		<path d="M264.016,348.453h-24.048c-4.142,0-7.5,3.358-7.5,7.5c0,4.142,3.358,7.5,7.5,7.5h24.048c4.142,0,7.5-3.358,7.5-7.5    C271.516,351.811,268.159,348.453,264.016,348.453z" fill="#91DC5A"/>
	</g>
</g>
<g>
</g>
<g>
</g>
<g>
</g>
<g>
</g>
<g>
</g>
<g>
</g>
<g>
</g>
<g>
</g>
<g>
</g>
<g>
</g>
<g>
</g>
<g>
</g>
<g>
</g>
<g>
</g>
<g>
</g>
</svg>
